<mxfile host="app.diagrams.net" modified="2022-05-20T03:23:26.110Z" agent="5.0 (Macintosh; Intel Mac OS X 10_15_7) AppleWebKit/537.36 (KHTML, like Gecko) Chrome/100.0.4896.127 Safari/537.36" etag="-Gc_6XPaAIkANVY0lhyn" version="18.0.6" type="github">
  <diagram id="3-svAJYzeYw0dNSFaixx" name="Page-1">
    <mxGraphModel dx="1236" dy="809" grid="0" gridSize="10" guides="1" tooltips="1" connect="1" arrows="1" fold="1" page="1" pageScale="1" pageWidth="1920" pageHeight="1200" math="0" shadow="0">
      <root>
        <mxCell id="0" />
        <mxCell id="1" parent="0" />
        <mxCell id="Lgb1SK-SHxEvMFRNT5PB-10" style="edgeStyle=orthogonalEdgeStyle;rounded=0;orthogonalLoop=1;jettySize=auto;html=1;exitX=0.5;exitY=1;exitDx=0;exitDy=0;entryX=0.5;entryY=0;entryDx=0;entryDy=0;fontSize=15;strokeWidth=2;" parent="1" source="Lgb1SK-SHxEvMFRNT5PB-1" target="Lgb1SK-SHxEvMFRNT5PB-2" edge="1">
          <mxGeometry relative="1" as="geometry" />
        </mxCell>
        <mxCell id="Lgb1SK-SHxEvMFRNT5PB-1" value="&lt;font style=&quot;font-size: 15px&quot;&gt;Actor Web&lt;/font&gt;" style="rounded=1;whiteSpace=wrap;html=1;strokeWidth=2;fillColor=#ffe6cc;strokeColor=#d79b00;" parent="1" vertex="1">
          <mxGeometry x="425" y="80" width="150" height="60" as="geometry" />
        </mxCell>
        <mxCell id="Lgb1SK-SHxEvMFRNT5PB-11" style="edgeStyle=orthogonalEdgeStyle;rounded=0;orthogonalLoop=1;jettySize=auto;html=1;fontSize=15;entryX=0.5;entryY=0;entryDx=0;entryDy=0;strokeWidth=2;" parent="1" source="Lgb1SK-SHxEvMFRNT5PB-2" target="Lgb1SK-SHxEvMFRNT5PB-3" edge="1">
          <mxGeometry relative="1" as="geometry">
            <mxPoint x="500" y="310" as="targetPoint" />
          </mxGeometry>
        </mxCell>
        <mxCell id="Lgb1SK-SHxEvMFRNT5PB-15" style="edgeStyle=orthogonalEdgeStyle;rounded=0;orthogonalLoop=1;jettySize=auto;html=1;entryX=0.5;entryY=0;entryDx=0;entryDy=0;fontSize=15;strokeWidth=2;" parent="1" source="Lgb1SK-SHxEvMFRNT5PB-2" target="Lgb1SK-SHxEvMFRNT5PB-14" edge="1">
          <mxGeometry relative="1" as="geometry" />
        </mxCell>
        <mxCell id="Lgb1SK-SHxEvMFRNT5PB-2" value="&lt;font style=&quot;font-size: 15px&quot;&gt;paas 智能网关&lt;/font&gt;" style="rounded=1;whiteSpace=wrap;html=1;strokeWidth=2;fillColor=#fff2cc;strokeColor=#d6b656;" parent="1" vertex="1">
          <mxGeometry x="425" y="210" width="150" height="60" as="geometry" />
        </mxCell>
        <mxCell id="Lgb1SK-SHxEvMFRNT5PB-3" value="&lt;span style=&quot;font-size: 15px&quot;&gt;Actor Manager&lt;/span&gt;" style="rounded=1;whiteSpace=wrap;html=1;strokeWidth=2;fillColor=#d5e8d4;strokeColor=#82b366;" parent="1" vertex="1">
          <mxGeometry x="428.75" y="360" width="142.5" height="60" as="geometry" />
        </mxCell>
        <mxCell id="Lgb1SK-SHxEvMFRNT5PB-5" value="" style="endArrow=none;dashed=1;html=1;dashPattern=1 3;strokeWidth=2;rounded=0;" parent="1" edge="1">
          <mxGeometry width="50" height="50" relative="1" as="geometry">
            <mxPoint x="161" y="170" as="sourcePoint" />
            <mxPoint x="960" y="170" as="targetPoint" />
          </mxGeometry>
        </mxCell>
        <mxCell id="Lgb1SK-SHxEvMFRNT5PB-6" value="" style="endArrow=none;dashed=1;html=1;dashPattern=1 3;strokeWidth=2;rounded=0;" parent="1" edge="1">
          <mxGeometry width="50" height="50" relative="1" as="geometry">
            <mxPoint x="163" y="320" as="sourcePoint" />
            <mxPoint x="970" y="320" as="targetPoint" />
          </mxGeometry>
        </mxCell>
        <mxCell id="Lgb1SK-SHxEvMFRNT5PB-7" value="&lt;span style=&quot;font-size: 15px&quot;&gt;Gateway&lt;/span&gt;" style="rounded=0;whiteSpace=wrap;html=1;strokeWidth=2;" parent="1" vertex="1">
          <mxGeometry x="860" y="200" width="70" height="80" as="geometry" />
        </mxCell>
        <mxCell id="Lgb1SK-SHxEvMFRNT5PB-8" value="&lt;span style=&quot;font-size: 15px&quot;&gt;Server&lt;/span&gt;" style="rounded=0;whiteSpace=wrap;html=1;strokeWidth=2;" parent="1" vertex="1">
          <mxGeometry x="860" y="350" width="70" height="80" as="geometry" />
        </mxCell>
        <mxCell id="Lgb1SK-SHxEvMFRNT5PB-9" value="&lt;span style=&quot;font-size: 15px&quot;&gt;Client&lt;/span&gt;" style="rounded=0;whiteSpace=wrap;html=1;strokeWidth=2;" parent="1" vertex="1">
          <mxGeometry x="860" y="50" width="70" height="80" as="geometry" />
        </mxCell>
        <mxCell id="Lgb1SK-SHxEvMFRNT5PB-14" value="&lt;span style=&quot;font-size: 15px&quot;&gt;Eventhub&lt;/span&gt;" style="rounded=1;whiteSpace=wrap;html=1;strokeWidth=2;fillColor=#dae8fc;strokeColor=#6c8ebf;" parent="1" vertex="1">
          <mxGeometry x="219" y="362" width="142.5" height="60" as="geometry" />
        </mxCell>
        <mxCell id="Lgb1SK-SHxEvMFRNT5PB-16" style="edgeStyle=orthogonalEdgeStyle;rounded=0;orthogonalLoop=1;jettySize=auto;html=1;exitX=0.5;exitY=1;exitDx=0;exitDy=0;entryX=0.5;entryY=0;entryDx=0;entryDy=0;fontSize=15;strokeWidth=2;" parent="1" source="Lgb1SK-SHxEvMFRNT5PB-17" target="Lgb1SK-SHxEvMFRNT5PB-20" edge="1">
          <mxGeometry relative="1" as="geometry" />
        </mxCell>
        <mxCell id="Lgb1SK-SHxEvMFRNT5PB-17" value="&lt;font style=&quot;font-size: 15px&quot;&gt;Provisioner Web&lt;/font&gt;" style="rounded=1;whiteSpace=wrap;html=1;strokeWidth=2;fillColor=#ffe6cc;strokeColor=#d79b00;" parent="1" vertex="1">
          <mxGeometry x="424" y="580" width="150" height="60" as="geometry" />
        </mxCell>
        <mxCell id="Lgb1SK-SHxEvMFRNT5PB-18" style="edgeStyle=orthogonalEdgeStyle;rounded=0;orthogonalLoop=1;jettySize=auto;html=1;fontSize=15;entryX=0.5;entryY=0;entryDx=0;entryDy=0;strokeWidth=2;" parent="1" source="Lgb1SK-SHxEvMFRNT5PB-20" target="Lgb1SK-SHxEvMFRNT5PB-21" edge="1">
          <mxGeometry relative="1" as="geometry">
            <mxPoint x="499" y="810" as="targetPoint" />
          </mxGeometry>
        </mxCell>
        <mxCell id="Lgb1SK-SHxEvMFRNT5PB-19" style="edgeStyle=orthogonalEdgeStyle;rounded=0;orthogonalLoop=1;jettySize=auto;html=1;entryX=0.5;entryY=0;entryDx=0;entryDy=0;fontSize=15;strokeWidth=2;" parent="1" source="Lgb1SK-SHxEvMFRNT5PB-20" target="Lgb1SK-SHxEvMFRNT5PB-27" edge="1">
          <mxGeometry relative="1" as="geometry" />
        </mxCell>
        <mxCell id="Lgb1SK-SHxEvMFRNT5PB-29" style="edgeStyle=orthogonalEdgeStyle;rounded=0;orthogonalLoop=1;jettySize=auto;html=1;entryX=0.5;entryY=0;entryDx=0;entryDy=0;fontSize=15;strokeWidth=2;" parent="1" source="Lgb1SK-SHxEvMFRNT5PB-20" target="Lgb1SK-SHxEvMFRNT5PB-28" edge="1">
          <mxGeometry relative="1" as="geometry" />
        </mxCell>
        <mxCell id="Lgb1SK-SHxEvMFRNT5PB-20" value="&lt;font style=&quot;font-size: 15px&quot;&gt;paas 智能网关&lt;/font&gt;" style="rounded=1;whiteSpace=wrap;html=1;strokeWidth=2;fillColor=#fff2cc;strokeColor=#d6b656;" parent="1" vertex="1">
          <mxGeometry x="424" y="710" width="150" height="60" as="geometry" />
        </mxCell>
        <mxCell id="Lgb1SK-SHxEvMFRNT5PB-30" style="edgeStyle=orthogonalEdgeStyle;rounded=0;orthogonalLoop=1;jettySize=auto;html=1;entryX=1;entryY=0.5;entryDx=0;entryDy=0;fontSize=15;strokeWidth=2;startArrow=classic;startFill=1;" parent="1" source="Lgb1SK-SHxEvMFRNT5PB-21" target="Lgb1SK-SHxEvMFRNT5PB-27" edge="1">
          <mxGeometry relative="1" as="geometry" />
        </mxCell>
        <mxCell id="Lgb1SK-SHxEvMFRNT5PB-21" value="&lt;span style=&quot;font-size: 15px&quot;&gt;Provisioner&lt;/span&gt;" style="rounded=1;whiteSpace=wrap;html=1;strokeWidth=2;fillColor=#d5e8d4;strokeColor=#82b366;" parent="1" vertex="1">
          <mxGeometry x="427.75" y="862" width="142.5" height="60" as="geometry" />
        </mxCell>
        <mxCell id="Lgb1SK-SHxEvMFRNT5PB-22" value="" style="endArrow=none;dashed=1;html=1;dashPattern=1 3;strokeWidth=2;rounded=0;" parent="1" edge="1">
          <mxGeometry width="50" height="50" relative="1" as="geometry">
            <mxPoint x="160" y="670" as="sourcePoint" />
            <mxPoint x="959" y="670" as="targetPoint" />
          </mxGeometry>
        </mxCell>
        <mxCell id="Lgb1SK-SHxEvMFRNT5PB-23" value="" style="endArrow=none;dashed=1;html=1;dashPattern=1 3;strokeWidth=2;rounded=0;" parent="1" edge="1">
          <mxGeometry width="50" height="50" relative="1" as="geometry">
            <mxPoint x="162" y="820" as="sourcePoint" />
            <mxPoint x="969" y="820" as="targetPoint" />
          </mxGeometry>
        </mxCell>
        <mxCell id="Lgb1SK-SHxEvMFRNT5PB-24" value="&lt;span style=&quot;font-size: 15px&quot;&gt;Gateway&lt;/span&gt;" style="rounded=0;whiteSpace=wrap;html=1;strokeWidth=2;" parent="1" vertex="1">
          <mxGeometry x="859" y="700" width="70" height="80" as="geometry" />
        </mxCell>
        <mxCell id="Lgb1SK-SHxEvMFRNT5PB-25" value="&lt;span style=&quot;font-size: 15px&quot;&gt;Server&lt;/span&gt;" style="rounded=0;whiteSpace=wrap;html=1;strokeWidth=2;" parent="1" vertex="1">
          <mxGeometry x="859" y="850" width="70" height="80" as="geometry" />
        </mxCell>
        <mxCell id="Lgb1SK-SHxEvMFRNT5PB-26" value="&lt;span style=&quot;font-size: 15px&quot;&gt;Client&lt;/span&gt;" style="rounded=0;whiteSpace=wrap;html=1;strokeWidth=2;" parent="1" vertex="1">
          <mxGeometry x="859" y="550" width="70" height="80" as="geometry" />
        </mxCell>
        <mxCell id="Lgb1SK-SHxEvMFRNT5PB-27" value="&lt;span style=&quot;font-size: 15px&quot;&gt;COS&lt;/span&gt;" style="rounded=1;whiteSpace=wrap;html=1;strokeWidth=2;fillColor=#dae8fc;strokeColor=#6c8ebf;" parent="1" vertex="1">
          <mxGeometry x="218" y="862" width="142.5" height="60" as="geometry" />
        </mxCell>
        <mxCell id="Lgb1SK-SHxEvMFRNT5PB-28" value="&lt;span style=&quot;font-size: 15px&quot;&gt;Auth&lt;/span&gt;" style="rounded=1;whiteSpace=wrap;html=1;strokeWidth=2;fillColor=#b1ddf0;strokeColor=#10739e;" parent="1" vertex="1">
          <mxGeometry x="640" y="860" width="142.5" height="60" as="geometry" />
        </mxCell>
        <mxCell id="Xoaozszjq_q_XkOGttIO-1" style="edgeStyle=orthogonalEdgeStyle;rounded=0;orthogonalLoop=1;jettySize=auto;html=1;exitX=0.5;exitY=1;exitDx=0;exitDy=0;entryX=0.5;entryY=0;entryDx=0;entryDy=0;fontSize=15;strokeWidth=2;" edge="1" parent="1" source="Xoaozszjq_q_XkOGttIO-2" target="Xoaozszjq_q_XkOGttIO-5">
          <mxGeometry relative="1" as="geometry" />
        </mxCell>
        <mxCell id="Xoaozszjq_q_XkOGttIO-2" value="&lt;font style=&quot;font-size: 15px&quot;&gt;Rule_Manage Web&lt;/font&gt;" style="rounded=1;whiteSpace=wrap;html=1;strokeWidth=2;fillColor=#ffe6cc;strokeColor=#d79b00;" vertex="1" parent="1">
          <mxGeometry x="438" y="1107" width="150" height="60" as="geometry" />
        </mxCell>
        <mxCell id="Xoaozszjq_q_XkOGttIO-3" style="edgeStyle=orthogonalEdgeStyle;rounded=0;orthogonalLoop=1;jettySize=auto;html=1;fontSize=15;entryX=0.5;entryY=0;entryDx=0;entryDy=0;strokeWidth=2;" edge="1" parent="1" source="Xoaozszjq_q_XkOGttIO-5" target="Xoaozszjq_q_XkOGttIO-6">
          <mxGeometry relative="1" as="geometry">
            <mxPoint x="513" y="1337" as="targetPoint" />
          </mxGeometry>
        </mxCell>
        <mxCell id="Xoaozszjq_q_XkOGttIO-5" value="&lt;font style=&quot;font-size: 15px&quot;&gt;paas 智能网关&lt;/font&gt;" style="rounded=1;whiteSpace=wrap;html=1;strokeWidth=2;fillColor=#fff2cc;strokeColor=#d6b656;" vertex="1" parent="1">
          <mxGeometry x="438" y="1237" width="150" height="60" as="geometry" />
        </mxCell>
        <mxCell id="Xoaozszjq_q_XkOGttIO-16" style="edgeStyle=orthogonalEdgeStyle;rounded=0;orthogonalLoop=1;jettySize=auto;html=1;exitX=0.5;exitY=1;exitDx=0;exitDy=0;entryX=0.5;entryY=0;entryDx=0;entryDy=0;strokeWidth=2;" edge="1" parent="1" source="Xoaozszjq_q_XkOGttIO-6" target="Xoaozszjq_q_XkOGttIO-14">
          <mxGeometry relative="1" as="geometry" />
        </mxCell>
        <mxCell id="Xoaozszjq_q_XkOGttIO-18" style="edgeStyle=orthogonalEdgeStyle;rounded=0;orthogonalLoop=1;jettySize=auto;html=1;exitX=1;exitY=0.5;exitDx=0;exitDy=0;strokeWidth=2;" edge="1" parent="1" source="Xoaozszjq_q_XkOGttIO-6" target="Xoaozszjq_q_XkOGttIO-17">
          <mxGeometry relative="1" as="geometry" />
        </mxCell>
        <mxCell id="Xoaozszjq_q_XkOGttIO-6" value="&lt;span style=&quot;font-size: 15px;&quot;&gt;Application&lt;/span&gt;" style="rounded=1;whiteSpace=wrap;html=1;strokeWidth=2;fillColor=#d5e8d4;strokeColor=#82b366;" vertex="1" parent="1">
          <mxGeometry x="441.75" y="1387" width="142.5" height="60" as="geometry" />
        </mxCell>
        <mxCell id="Xoaozszjq_q_XkOGttIO-7" value="" style="endArrow=none;dashed=1;html=1;dashPattern=1 3;strokeWidth=2;rounded=0;" edge="1" parent="1">
          <mxGeometry width="50" height="50" relative="1" as="geometry">
            <mxPoint x="174" y="1197" as="sourcePoint" />
            <mxPoint x="973" y="1197" as="targetPoint" />
          </mxGeometry>
        </mxCell>
        <mxCell id="Xoaozszjq_q_XkOGttIO-8" value="" style="endArrow=none;dashed=1;html=1;dashPattern=1 3;strokeWidth=2;rounded=0;" edge="1" parent="1">
          <mxGeometry width="50" height="50" relative="1" as="geometry">
            <mxPoint x="176" y="1347" as="sourcePoint" />
            <mxPoint x="983" y="1347" as="targetPoint" />
          </mxGeometry>
        </mxCell>
        <mxCell id="Xoaozszjq_q_XkOGttIO-9" value="&lt;span style=&quot;font-size: 15px&quot;&gt;Gateway&lt;/span&gt;" style="rounded=0;whiteSpace=wrap;html=1;strokeWidth=2;" vertex="1" parent="1">
          <mxGeometry x="873" y="1227" width="70" height="80" as="geometry" />
        </mxCell>
        <mxCell id="Xoaozszjq_q_XkOGttIO-10" value="&lt;span style=&quot;font-size: 15px&quot;&gt;Server&lt;/span&gt;" style="rounded=0;whiteSpace=wrap;html=1;strokeWidth=2;" vertex="1" parent="1">
          <mxGeometry x="873" y="1377" width="70" height="80" as="geometry" />
        </mxCell>
        <mxCell id="Xoaozszjq_q_XkOGttIO-11" value="&lt;span style=&quot;font-size: 15px&quot;&gt;Client&lt;/span&gt;" style="rounded=0;whiteSpace=wrap;html=1;strokeWidth=2;" vertex="1" parent="1">
          <mxGeometry x="873" y="1077" width="70" height="80" as="geometry" />
        </mxCell>
        <mxCell id="Xoaozszjq_q_XkOGttIO-13" value="" style="endArrow=none;dashed=1;html=1;dashPattern=1 3;strokeWidth=2;rounded=0;" edge="1" parent="1">
          <mxGeometry width="50" height="50" relative="1" as="geometry">
            <mxPoint x="172" y="1500" as="sourcePoint" />
            <mxPoint x="979" y="1500" as="targetPoint" />
          </mxGeometry>
        </mxCell>
        <mxCell id="Xoaozszjq_q_XkOGttIO-14" value="&lt;span style=&quot;font-size: 15px;&quot;&gt;Provisioner&lt;/span&gt;" style="rounded=1;whiteSpace=wrap;html=1;strokeWidth=2;fillColor=#dae8fc;strokeColor=#6c8ebf;" vertex="1" parent="1">
          <mxGeometry x="441.75" y="1550" width="142.5" height="60" as="geometry" />
        </mxCell>
        <mxCell id="Xoaozszjq_q_XkOGttIO-15" value="&lt;span style=&quot;font-size: 15px&quot;&gt;Server&lt;/span&gt;" style="rounded=0;whiteSpace=wrap;html=1;strokeWidth=2;" vertex="1" parent="1">
          <mxGeometry x="873" y="1540" width="70" height="80" as="geometry" />
        </mxCell>
        <mxCell id="Xoaozszjq_q_XkOGttIO-17" value="&lt;span style=&quot;font-size: 15px;&quot;&gt;Auth&lt;/span&gt;" style="rounded=1;whiteSpace=wrap;html=1;strokeWidth=2;fillColor=#b1ddf0;strokeColor=#10739e;" vertex="1" parent="1">
          <mxGeometry x="661" y="1550" width="142.5" height="60" as="geometry" />
        </mxCell>
        <mxCell id="Xoaozszjq_q_XkOGttIO-20" value="" style="rounded=0;whiteSpace=wrap;html=1;fillColor=#eeeeee;strokeColor=none;" vertex="1" parent="1">
          <mxGeometry x="206.5" y="1841" width="1034.5" height="132" as="geometry" />
        </mxCell>
        <mxCell id="Xoaozszjq_q_XkOGttIO-21" value="" style="rounded=0;whiteSpace=wrap;html=1;fillColor=#eeeeee;strokeColor=none;" vertex="1" parent="1">
          <mxGeometry x="208.5" y="1999" width="1035" height="124.5" as="geometry" />
        </mxCell>
        <mxCell id="Xoaozszjq_q_XkOGttIO-22" value="" style="rounded=0;whiteSpace=wrap;html=1;fillColor=#eeeeee;strokeColor=none;" vertex="1" parent="1">
          <mxGeometry x="209.5" y="2148" width="1032.5" height="126" as="geometry" />
        </mxCell>
        <mxCell id="Xoaozszjq_q_XkOGttIO-24" value="&lt;font style=&quot;font-size: 18px;&quot;&gt;组件层&lt;/font&gt;" style="text;html=1;align=center;verticalAlign=middle;resizable=0;points=[];autosize=1;strokeColor=none;fillColor=none;fontStyle=1;fontColor=#0066CC;" vertex="1" parent="1">
          <mxGeometry x="226" y="1894" width="64" height="20" as="geometry" />
        </mxCell>
        <mxCell id="Xoaozszjq_q_XkOGttIO-25" value="&lt;font style=&quot;font-size: 18px;&quot;&gt;基础层&lt;/font&gt;" style="text;html=1;align=center;verticalAlign=middle;resizable=0;points=[];autosize=1;strokeColor=none;fillColor=none;fontStyle=1;fontColor=#0066CC;" vertex="1" parent="1">
          <mxGeometry x="227.5" y="2052" width="64" height="20" as="geometry" />
        </mxCell>
        <mxCell id="Xoaozszjq_q_XkOGttIO-26" value="&lt;font style=&quot;font-size: 18px;&quot;&gt;构建层&lt;/font&gt;" style="text;html=1;align=center;verticalAlign=middle;resizable=0;points=[];autosize=1;strokeColor=none;fillColor=none;fontStyle=1;fontColor=#0066CC;" vertex="1" parent="1">
          <mxGeometry x="227" y="2201" width="64" height="20" as="geometry" />
        </mxCell>
        <mxCell id="Xoaozszjq_q_XkOGttIO-29" value="vite" style="rounded=0;whiteSpace=wrap;html=1;fontSize=18;fillColor=#0066CC;strokeColor=none;fontColor=#ffffff;" vertex="1" parent="1">
          <mxGeometry x="673.25" y="2188" width="120" height="60" as="geometry" />
        </mxCell>
        <mxCell id="Xoaozszjq_q_XkOGttIO-30" value="网络请求" style="rounded=0;whiteSpace=wrap;html=1;fontSize=18;fillColor=#0066CC;strokeColor=none;fontColor=#ffffff;" vertex="1" parent="1">
          <mxGeometry x="330.5" y="2035.5" width="120" height="60" as="geometry" />
        </mxCell>
        <mxCell id="Xoaozszjq_q_XkOGttIO-31" value="工具方法" style="rounded=0;whiteSpace=wrap;html=1;fontSize=18;fillColor=#0066CC;strokeColor=none;fontColor=#ffffff;" vertex="1" parent="1">
          <mxGeometry x="673.75" y="2035.5" width="120" height="60" as="geometry" />
        </mxCell>
        <mxCell id="Xoaozszjq_q_XkOGttIO-32" value="事件上报" style="rounded=0;whiteSpace=wrap;html=1;fontSize=18;fillColor=#0066CC;strokeColor=none;fontColor=#ffffff;" vertex="1" parent="1">
          <mxGeometry x="502.5" y="2035.5" width="120" height="60" as="geometry" />
        </mxCell>
        <mxCell id="Xoaozszjq_q_XkOGttIO-33" value="本地存储" style="rounded=0;whiteSpace=wrap;html=1;fontSize=18;fillColor=#0066CC;strokeColor=none;fontColor=#ffffff;" vertex="1" parent="1">
          <mxGeometry x="858.5" y="2035.5" width="120" height="60" as="geometry" />
        </mxCell>
        <mxCell id="Xoaozszjq_q_XkOGttIO-34" value="全局参数初始化" style="rounded=0;whiteSpace=wrap;html=1;fontSize=18;fillColor=#0066CC;strokeColor=none;fontColor=#ffffff;" vertex="1" parent="1">
          <mxGeometry x="1028.5" y="2035.5" width="140" height="56" as="geometry" />
        </mxCell>
        <mxCell id="Xoaozszjq_q_XkOGttIO-35" value="" style="rounded=0;whiteSpace=wrap;html=1;fillColor=#eeeeee;strokeColor=none;" vertex="1" parent="1">
          <mxGeometry x="207.5" y="1685" width="1034.5" height="132" as="geometry" />
        </mxCell>
        <mxCell id="Xoaozszjq_q_XkOGttIO-36" value="&lt;font style=&quot;font-size: 18px;&quot;&gt;应用层&lt;/font&gt;" style="text;html=1;align=center;verticalAlign=middle;resizable=0;points=[];autosize=1;strokeColor=none;fillColor=none;fontStyle=1;fontColor=#0066CC;" vertex="1" parent="1">
          <mxGeometry x="226" y="1741" width="64" height="20" as="geometry" />
        </mxCell>
        <mxCell id="Xoaozszjq_q_XkOGttIO-37" value="Form" style="rounded=0;whiteSpace=wrap;html=1;fontSize=18;fillColor=#0066CC;strokeColor=none;fontColor=#ffffff;" vertex="1" parent="1">
          <mxGeometry x="329" y="1877" width="120" height="60" as="geometry" />
        </mxCell>
        <mxCell id="Xoaozszjq_q_XkOGttIO-38" value="Editor" style="rounded=0;whiteSpace=wrap;html=1;fontSize=18;fillColor=#0066CC;strokeColor=none;fontColor=#ffffff;" vertex="1" parent="1">
          <mxGeometry x="503" y="1877" width="120" height="60" as="geometry" />
        </mxCell>
        <mxCell id="Xoaozszjq_q_XkOGttIO-39" value="Modal" style="rounded=0;whiteSpace=wrap;html=1;fontSize=18;fillColor=#0066CC;strokeColor=none;fontColor=#ffffff;" vertex="1" parent="1">
          <mxGeometry x="668" y="1877" width="120" height="60" as="geometry" />
        </mxCell>
        <mxCell id="Xoaozszjq_q_XkOGttIO-40" value="Breadcrumb" style="rounded=0;whiteSpace=wrap;html=1;fontSize=18;fillColor=#0066CC;strokeColor=none;fontColor=#ffffff;" vertex="1" parent="1">
          <mxGeometry x="855" y="1877" width="120" height="60" as="geometry" />
        </mxCell>
        <mxCell id="Xoaozszjq_q_XkOGttIO-41" value="Select" style="rounded=0;whiteSpace=wrap;html=1;fontSize=18;fillColor=#0066CC;strokeColor=none;fontColor=#ffffff;" vertex="1" parent="1">
          <mxGeometry x="1027" y="1877" width="120" height="60" as="geometry" />
        </mxCell>
        <mxCell id="Xoaozszjq_q_XkOGttIO-42" value="......" style="text;html=1;align=center;verticalAlign=middle;resizable=0;points=[];autosize=1;strokeColor=none;fillColor=none;fontSize=18;fontColor=#0066CC;" vertex="1" parent="1">
          <mxGeometry x="1160" y="1911" width="40" height="26" as="geometry" />
        </mxCell>
        <mxCell id="Xoaozszjq_q_XkOGttIO-43" value="" style="rounded=1;whiteSpace=wrap;html=1;fontSize=18;fontColor=#0066CC;fillColor=none;strokeWidth=2;dashed=1;" vertex="1" parent="1">
          <mxGeometry x="329" y="1701" width="418" height="102" as="geometry" />
        </mxCell>
        <mxCell id="Xoaozszjq_q_XkOGttIO-44" value="业务&lt;br&gt;组件" style="text;html=1;align=center;verticalAlign=middle;resizable=0;points=[];autosize=1;strokeColor=none;fillColor=none;fontSize=18;fontColor=#0066CC;" vertex="1" parent="1">
          <mxGeometry x="346" y="1728" width="46" height="48" as="geometry" />
        </mxCell>
        <mxCell id="Xoaozszjq_q_XkOGttIO-47" value="" style="rounded=1;whiteSpace=wrap;html=1;fontSize=18;fontColor=#0066CC;fillColor=none;strokeWidth=2;dashed=1;" vertex="1" parent="1">
          <mxGeometry x="764" y="1701" width="470" height="103" as="geometry" />
        </mxCell>
        <mxCell id="Xoaozszjq_q_XkOGttIO-48" value="业务&lt;br&gt;能力" style="text;html=1;align=center;verticalAlign=middle;resizable=0;points=[];autosize=1;strokeColor=none;fillColor=none;fontSize=18;fontColor=#0066CC;" vertex="1" parent="1">
          <mxGeometry x="782.5" y="1727" width="46" height="48" as="geometry" />
        </mxCell>
        <mxCell id="Xoaozszjq_q_XkOGttIO-49" value="Home" style="rounded=0;whiteSpace=wrap;html=1;fontSize=18;fillColor=#0066CC;strokeColor=none;fontColor=#ffffff;" vertex="1" parent="1">
          <mxGeometry x="410" y="1710" width="74" height="37" as="geometry" />
        </mxCell>
        <mxCell id="Xoaozszjq_q_XkOGttIO-51" value="Rule" style="rounded=0;whiteSpace=wrap;html=1;fontSize=18;fillColor=#0066CC;strokeColor=none;fontColor=#ffffff;" vertex="1" parent="1">
          <mxGeometry x="504" y="1710" width="75" height="37" as="geometry" />
        </mxCell>
        <mxCell id="Xoaozszjq_q_XkOGttIO-52" value="Project" style="rounded=0;whiteSpace=wrap;html=1;fontSize=18;fillColor=#0066CC;strokeColor=none;fontColor=#ffffff;" vertex="1" parent="1">
          <mxGeometry x="601.25" y="1710" width="74.75" height="37" as="geometry" />
        </mxCell>
        <mxCell id="Xoaozszjq_q_XkOGttIO-53" value="Template" style="rounded=0;whiteSpace=wrap;html=1;fontSize=18;fillColor=#0066CC;strokeColor=none;fontColor=#ffffff;" vertex="1" parent="1">
          <mxGeometry x="410" y="1758" width="75" height="37" as="geometry" />
        </mxCell>
        <mxCell id="Xoaozszjq_q_XkOGttIO-54" value="Auth" style="rounded=0;whiteSpace=wrap;html=1;fontSize=18;fillColor=#0066CC;strokeColor=none;fontColor=#ffffff;" vertex="1" parent="1">
          <mxGeometry x="504" y="1758" width="75" height="37" as="geometry" />
        </mxCell>
        <mxCell id="Xoaozszjq_q_XkOGttIO-55" value="Material" style="rounded=0;whiteSpace=wrap;html=1;fontSize=18;fillColor=#0066CC;strokeColor=none;fontColor=#ffffff;" vertex="1" parent="1">
          <mxGeometry x="601.25" y="1758" width="75" height="37" as="geometry" />
        </mxCell>
        <mxCell id="Xoaozszjq_q_XkOGttIO-58" value="模板规则应用" style="rounded=0;whiteSpace=wrap;html=1;fontSize=18;fillColor=#0066CC;strokeColor=none;fontColor=#ffffff;" vertex="1" parent="1">
          <mxGeometry x="846" y="1710" width="114.37" height="41" as="geometry" />
        </mxCell>
        <mxCell id="Xoaozszjq_q_XkOGttIO-59" value="规则启停" style="rounded=0;whiteSpace=wrap;html=1;fontSize=18;fillColor=#0066CC;strokeColor=none;fontColor=#ffffff;" vertex="1" parent="1">
          <mxGeometry x="979" y="1710" width="93" height="41" as="geometry" />
        </mxCell>
        <mxCell id="Xoaozszjq_q_XkOGttIO-60" value="脚本编辑" style="rounded=0;whiteSpace=wrap;html=1;fontSize=18;fillColor=#0066CC;strokeColor=none;fontColor=#ffffff;" vertex="1" parent="1">
          <mxGeometry x="1091" y="1710" width="93" height="41" as="geometry" />
        </mxCell>
        <mxCell id="Xoaozszjq_q_XkOGttIO-61" value="令牌授权" style="rounded=0;whiteSpace=wrap;html=1;fontSize=18;fillColor=#0066CC;strokeColor=none;fontColor=#ffffff;" vertex="1" parent="1">
          <mxGeometry x="845.6899999999999" y="1755" width="115" height="40" as="geometry" />
        </mxCell>
        <mxCell id="Xoaozszjq_q_XkOGttIO-62" value="脚本上线" style="rounded=0;whiteSpace=wrap;html=1;fontSize=18;fillColor=#0066CC;strokeColor=none;fontColor=#ffffff;" vertex="1" parent="1">
          <mxGeometry x="977" y="1756.5" width="95" height="39.5" as="geometry" />
        </mxCell>
        <mxCell id="Xoaozszjq_q_XkOGttIO-63" value="脚本卸载" style="rounded=0;whiteSpace=wrap;html=1;fontSize=18;fillColor=#0066CC;strokeColor=none;fontColor=#ffffff;" vertex="1" parent="1">
          <mxGeometry x="1089" y="1756.5" width="95" height="39.5" as="geometry" />
        </mxCell>
        <mxCell id="Xoaozszjq_q_XkOGttIO-64" value="......" style="text;html=1;align=center;verticalAlign=middle;resizable=0;points=[];autosize=1;strokeColor=none;fillColor=none;fontSize=18;fontColor=#0066CC;" vertex="1" parent="1">
          <mxGeometry x="685" y="1770" width="40" height="26" as="geometry" />
        </mxCell>
        <mxCell id="Xoaozszjq_q_XkOGttIO-66" value="......" style="text;html=1;align=center;verticalAlign=middle;resizable=0;points=[];autosize=1;strokeColor=none;fillColor=none;fontSize=18;fontColor=#0066CC;" vertex="1" parent="1">
          <mxGeometry x="1188" y="1769" width="40" height="26" as="geometry" />
        </mxCell>
      </root>
    </mxGraphModel>
  </diagram>
</mxfile>
